<?xml version="1.0" encoding="UTF-8" standalone="no"?>
<!DOCTYPE svg PUBLIC "-//W3C//DTD SVG 1.1//EN" "http://www.w3.org/Graphics/SVG/1.1/DTD/svg11.dtd">
<svg width="100%" height="100%" viewBox="0 0 32 32" version="1.1" xmlns="http://www.w3.org/2000/svg"
    xmlns:xlink="http://www.w3.org/1999/xlink" xml:space="preserve" xmlns:serif="http://www.serif.com/"
    style="fill-rule:evenodd;clip-rule:evenodd;">
    <g transform="matrix(0.0516129,0,0,0.0516129,0,0)">
        <rect x="16" y="16" width="588" height="588" style="fill:none;stroke:black;stroke-width:32px;" />
    </g>
    <g transform="matrix(0.0516129,0,0,0.0516129,0,0)">
        <circle cx="144" cy="140" r="32" />
    </g>
    <g transform="matrix(0.0610243,0,0,0.0610243,-3.91588,-3.99631)">
        <path
            d="M309.548,530.88C295.468,530.88 283.228,528.56 272.828,523.92C262.428,519.28 254.028,512.96 247.628,504.96L268.508,481.92C274.588,488.64 281.228,493.6 288.428,496.8C295.788,500 303.228,501.6 310.747,501.6C319.388,501.6 325.948,499.68 330.428,495.84C334.908,492 337.148,486.48 337.148,479.28C337.148,473.36 335.388,468.88 331.868,465.84C328.508,462.8 322.748,460.64 314.588,459.36L297.068,456.48C282.028,453.92 271.148,448.4 264.428,439.92C257.708,431.28 254.348,420.8 254.348,408.48C254.348,392.32 259.628,379.84 270.188,371.04C280.748,362.08 295.548,357.6 314.588,357.6C327.548,357.6 338.828,359.6 348.428,363.6C358.028,367.6 365.788,373.04 371.708,379.92L351.308,402.72C346.828,397.76 341.548,393.92 335.468,391.2C329.388,388.32 322.508,386.88 314.828,386.88C298.668,386.88 290.588,393.52 290.588,406.8C290.588,412.56 292.348,416.88 295.868,419.76C299.548,422.64 305.468,424.8 313.628,426.24L331.148,429.36C344.748,431.76 355.228,436.88 362.588,444.72C369.948,452.56 373.628,463.12 373.628,476.4C373.628,484.24 372.268,491.52 369.548,498.24C366.828,504.8 362.748,510.56 357.308,515.52C351.868,520.32 345.148,524.08 337.148,526.8C329.308,529.52 320.108,530.88 309.548,530.88ZM474.094,390L474.094,528L438.094,528L438.094,390L389.854,390L389.854,360.48L522.334,360.48L522.334,390L474.094,390Z"
            style="fill-rule:nonzero;" />
    </g>
</svg>