<?xml version="1.0" encoding="UTF-8" standalone="no"?>
<svg xmlns:dc="http://purl.org/dc/elements/1.1/" xmlns:cc="http://creativecommons.org/ns#"
   xmlns:rdf="http://www.w3.org/1999/02/22-rdf-syntax-ns#" xmlns:svg="http://www.w3.org/2000/svg"
   xmlns="http://www.w3.org/2000/svg" xmlns:sodipodi="http://sodipodi.sourceforge.net/DTD/sodipodi-0.dtd"
   xmlns:inkscape="http://www.inkscape.org/namespaces/inkscape" sodipodi:docname="STM32-for-VSCode-logo.svg"
   inkscape:version="1.0 (4035a4fb49, 2020-05-01)" id="svg926" version="1.1" viewBox="0 0 66.145828 66.674988"
   height="66.674988mm" width="66.145828mm">
   <defs id="defs920" />
   <sodipodi:namedview inkscape:window-maximized="1" inkscape:window-y="-8" inkscape:window-x="1912"
      inkscape:window-height="1017" inkscape:window-width="1920" fit-margin-bottom="0" fit-margin-right="0"
      fit-margin-left="0" fit-margin-top="0" showgrid="false" inkscape:document-rotation="0"
      inkscape:current-layer="layer1" inkscape:document-units="mm" inkscape:cy="-180.5562" inkscape:cx="-541.16999"
      inkscape:zoom="0.35" inkscape:pageshadow="2" inkscape:pageopacity="0.0" borderopacity="1.0" bordercolor="#fff"
      pagecolor="#ffffff" id="base" />
   <metadata id="metadata923">
      <rdf:RDF>
         <cc:Work rdf:about="">
            <dc:format>image/svg+xml</dc:format>
            <dc:type rdf:resource="http://purl.org/dc/dcmitype/StillImage" />
            <dc:title></dc:title>
         </cc:Work>
      </rdf:RDF>
   </metadata>
   <g transform="translate(-0.18899,-0.30237)" id="layer1" inkscape:groupmode="layer" inkscape:label="Layer 1">
      <path style="fill:#fff;stroke-width:0.264583"
         d="m 5.8662741,62.817433 c -1.258839,-0.57806 -1.822958,-1.16811 -2.37116,-2.48015 -0.357003,-0.85443 -0.406252,-4.16643 -0.401154,-26.9778 0.0055,-24.6662091 0.03081,-26.0582482 0.491799,-27.0621484 0.578061,-1.25883 1.168107,-1.82295 2.480137,-2.37115 0.85443,-0.35701 4.1664399,-0.40626 26.9778149,-0.40116 24.666213,0.006 26.058254,0.0308 27.062152,0.4918 1.25884,0.57806 1.82295,1.16811 2.371162,2.48014 0.356838,0.8540402 0.406958,4.1695284 0.406958,26.9201584 0,22.75064 -0.0501,26.06612 -0.406958,26.92016 -0.548212,1.31204 -1.112322,1.90209 -2.371162,2.48015 -1.004228,0.46113 -2.390658,0.48598 -27.119799,0.48598 -24.7291289,0 -26.1155619,-0.0248 -27.1197899,-0.48598 z m 6.6503819,-8.82939 c 1.535938,-2.46703 4.065242,-6.93399 4.065242,-7.17956 0,-0.0892 -0.34856,-0.16219 -0.774577,-0.16219 -0.713481,0 -0.886777,0.21391 -2.197071,2.71198 -0.782371,1.49159 -1.769371,3.24775 -2.193333,3.9026 l -0.77084,1.19063 -0.191137,-1.45522 c -0.105125,-0.80035 -0.274158,-2.55653 -0.37563,-3.90259 l -0.1844949,-2.4474 h -0.796324 -0.796324 l 0.166841,1.97373 c 0.09176,1.08554 0.362296,3.22867 0.601186,4.7625 l 0.434345,2.78876 0.8266999,-5.2e-4 c 0.749093,-2.6e-4 0.954253,-0.20532 2.185417,-2.18281 z m 8.590699,1.18035 c 1.351562,-1.51265 0.918665,-3.26613 -1.054912,-4.27297 -1.333559,-0.68033 -1.714056,-1.18641 -1.508326,-2.00609 0.231419,-0.92205 1.291127,-1.29762 2.662933,-0.94376 0.89523,0.23092 1.115846,0.20443 1.39511,-0.16754 0.545301,-0.72632 -0.06103,-0.99945 -2.218736,-0.99945 -1.916326,0 -2.022496,0.0332 -2.764896,0.86407 -1.353257,1.51456 -0.815317,3.19339 1.382521,4.31463 1.168289,0.59603 1.417137,1.00574 1.181377,1.94509 -0.228198,0.90921 -1.621488,1.33641 -3.078804,0.944 -0.964847,-0.25981 -1.143515,-0.23722 -1.452103,0.18359 -0.56905,0.77601 0.427833,1.16608 2.743857,1.07364 1.816417,-0.0725 1.996705,-0.13467 2.711979,-0.93521 z m 8.707527,0.57575 c 0.152963,-0.15296 0.207425,-0.46232 0.121028,-0.68747 -0.126783,-0.33039 -0.479261,-0.3835 -1.827226,-0.27529 -2.18233,0.17517 -2.795536,-0.33433 -2.795536,-2.32275 0,-1.69661 0.491995,-2.86556 1.597638,-3.79589 0.792173,-0.66657 1.037553,-0.72866 2.568585,-0.64993 1.377294,0.0708 1.739636,0.003 1.944368,-0.36257 0.364572,-0.65146 -0.456049,-1.00395 -2.337232,-1.00395 -1.272293,0 -1.780148,0.144 -2.808932,0.79643 -2.888378,1.83176 -3.516911,6.92794 -1.027247,8.32899 0.822071,0.46261 4.09413,0.44284 4.564554,-0.0276 z m 7.321145,0.14573 c 3.110275,-1.17515 4.544184,-6.37189 2.331677,-8.45044 -0.505131,-0.47455 -1.051856,-0.65537 -2.241817,-0.74144 -1.345755,-0.0973 -1.746705,-0.0125 -2.767467,0.58572 -3.020161,1.76993 -3.798002,7.09929 -1.239131,8.48988 0.825576,0.44866 2.875928,0.50953 3.916738,0.11628 z m -3.33701,-1.73864 c -0.691938,-0.87965 -0.710946,-2.49119 -0.04663,-3.95386 0.685385,-1.50907 1.685756,-2.22816 3.099721,-2.22816 0.95709,0 1.227142,0.11959 1.617964,0.7165 1.021291,1.55984 0.18506,4.7193 -1.514872,5.72347 -1.156385,0.68309 -2.502493,0.57308 -3.15618,-0.25795 z m 12.436787,1.71805 c 0.55439,-0.1661 1.44679,-0.6637 1.983089,-1.10576 2.6288,-2.16689 2.61923,-6.63496 -0.01659,-7.73628 -0.948129,-0.39615 -4.022317,-0.51744 -4.523362,-0.17846 -0.369059,0.24969 -2.326978,8.68085 -2.10086,9.04671 0.22838,0.36953 3.396364,0.3517 4.657704,-0.0262 z m -2.488422,-3.73289 c 0.355195,-1.49158 0.713462,-3.0394 0.796163,-3.43958 0.139428,-0.6748 0.244819,-0.7276 1.452208,-0.7276 1.029452,0 1.437762,0.13589 1.951302,0.64943 0.85216,0.85216 0.873948,2.50475 0.0541,4.10357 -0.722011,1.40804 -1.961351,2.12616 -3.669382,2.12616 h -1.230231 z m 13.380522,3.37344 0.126449,-0.66146 h -2.241708 -2.241722 l 0.17903,-0.95429 c 0.40695,-2.16926 0.465331,-2.22071 2.519151,-2.22071 1.682239,0 1.858629,-0.0502 1.858629,-0.52917 0,-0.47489 -0.17639,-0.52917 -1.719789,-0.52917 -1.881029,0 -1.895819,-0.017 -1.441299,-1.65363 l 0.27555,-0.99219 h 2.073378 c 2.001512,0 2.077771,-0.0229 2.199831,-0.66146 l 0.126449,-0.66146 h -2.820958 -2.820961 l -1.111099,4.56697 c -0.6111,2.51184 -1.111102,4.65496 -1.111102,4.7625 0,0.10754 1.355341,0.19552 3.011861,0.19552 3.002549,0 3.01226,-0.002 3.13831,-0.66145 z M 21.344398,41.755013 c 4.941083,-1.55987 7.115862,-4.11672 7.351444,-8.64297 0.105791,-2.03254 0.04437,-2.45283 -0.547333,-3.74529 -0.908764,-1.98498 -2.240266,-3.19168 -5.718783,-5.1827 -1.625014,-0.93013 -3.248366,-2.04029 -3.607449,-2.46704 -1.267437,-1.50626 -0.630336,-4.12563 1.253649,-5.15423 0.734831,-0.40119 1.6708,-0.48942 5.964863,-0.56224 4.978365,-0.0844 5.096245,-0.0994 5.225332,-0.66146 0.757291,-3.29762 0.918914,-4.06561 0.922282,-4.3825 0.0058,-0.5415 -10.59819,-0.2478 -12.808572,0.35477 -3.404765,0.92815 -5.729567,2.86884 -6.783508,5.66269 -0.454392,1.20453 -0.542045,1.90439 -0.452227,3.61079 0.186999,3.5527 1.546381,5.30642 6.077501,7.84049 3.448228,1.92846 4.445718,2.95271 4.445718,4.56501 0,1.46273 -0.852246,2.77097 -2.25245,3.45762 -0.979617,0.48039 -4.483318,0.79462 -10.227068,0.91722 l -0.9701429,0.0207 -0.551211,2.34786 c -0.303166,1.29132 -0.551211,2.43663 -0.551211,2.54512 0,0.1085 2.6491389,0.13838 5.8869789,0.0664 4.572931,-0.10164 6.211799,-0.23339 7.342187,-0.59025 z m 22.436073,-6.41966 c 0.870733,-3.60164 2.276864,-9.4357 3.124724,-12.96458 l 1.541568,-6.41614 h 4.539962 4.539959 l 0.66345,-2.64584 0.663451,-2.64583 H 46.613904 34.374213 l -0.563615,2.4474 c -0.309986,1.34606 -0.56279,2.53669 -0.561782,2.64583 0.0011,0.10914 2.033916,0.19844 4.517578,0.19844 4.175977,0 4.505547,0.0348 4.380148,0.46302 -0.330901,1.12994 -5.985478,24.91198 -5.985478,25.17376 0,0.19636 0.991182,0.29238 3.018128,0.29238 h 3.018129 z"
         id="path898" />
      <g id="g847" transform="translate(-54.428571,-112.25894)">
         <path style="fill:#fff;fill-opacity:1;stroke-width:0.264583"
            d="m 76.13563,177.51651 c 0.0012,-1.01864 0.049,-1.40294 0.106272,-0.85399 0.05728,0.54895 0.05632,1.38238 -0.0021,1.85208 -0.05845,0.4697 -0.105311,0.0206 -0.104138,-0.99809 z m 6.879167,0 c 0.0011,-1.01864 0.049,-1.40294 0.106272,-0.85399 0.05727,0.54895 0.05631,1.38238 -0.0021,1.85208 -0.05845,0.4697 -0.105312,0.0206 -0.104137,-0.99809 z m 2.116666,0 c 0.0011,-1.01864 0.049,-1.40294 0.106273,-0.85399 0.05727,0.54895 0.05631,1.38238 -0.0021,1.85208 -0.05845,0.4697 -0.105312,0.0206 -0.104137,-0.99809 z m 5.027083,0 c 0.0011,-1.01864 0.049,-1.40294 0.106273,-0.85399 0.05727,0.54895 0.05631,1.38238 -0.0021,1.85208 -0.05845,0.4697 -0.105312,0.0206 -0.104137,-0.99809 z m 2.116667,0 c 0.0011,-1.01864 0.049,-1.40294 0.106272,-0.85399 0.05728,0.54895 0.05631,1.38238 -0.0021,1.85208 -0.05845,0.4697 -0.105312,0.0206 -0.104138,-0.99809 z m 7.143749,0 c 0.0011,-1.01864 0.049,-1.40294 0.106273,-0.85399 0.05727,0.54895 0.05631,1.38238 -0.0021,1.85208 -0.05845,0.4697 -0.105312,0.0206 -0.104137,-0.99809 z M 76.13563,114.2811 c 0.0012,-1.01865 0.049,-1.40295 0.106272,-0.854 0.05728,0.54895 0.05632,1.38239 -0.0021,1.85209 -0.05844,0.46969 -0.105302,0.0206 -0.104129,-0.99809 z m 6.879167,0 c 0.0011,-1.01865 0.049,-1.40295 0.106272,-0.854 0.05727,0.54895 0.05631,1.38239 -0.0021,1.85209 -0.05847,0.46969 -0.10533,0.0206 -0.104155,-0.99809 z m 2.116666,0 c 0.0011,-1.01865 0.049,-1.40295 0.106273,-0.854 0.05727,0.54895 0.05631,1.38239 -0.0021,1.85209 -0.05847,0.46969 -0.105331,0.0206 -0.104156,-0.99809 z m 5.027083,0 c 0.0011,-1.01865 0.049,-1.40295 0.106273,-0.854 0.05727,0.54895 0.05631,1.38239 -0.0021,1.85209 -0.05847,0.46969 -0.10533,0.0206 -0.104156,-0.99809 z m 2.116667,0 c 0.0011,-1.01865 0.049,-1.40295 0.106272,-0.854 0.05728,0.54895 0.05631,1.38239 -0.0021,1.85209 -0.05847,0.46969 -0.105331,0.0206 -0.104156,-0.99809 z m 7.143749,0 c 0.0011,-1.01865 0.049,-1.40295 0.106273,-0.854 0.05727,0.54895 0.05631,1.38239 -0.0021,1.85209 -0.05847,0.46969 -0.10533,0.0206 -0.104156,-0.99809 z"
            id="path861" />
         <path style="fill:#fff;fill-opacity:1;stroke-width:0.264583"
            d="m 63.613394,177.51651 v -1.71979 h 2.513541 2.513542 v 1.71979 1.71979 h -2.513542 -2.513541 z m 7.408333,0 v -1.71979 h 2.513541 2.513542 v 1.71979 1.71979 h -2.513542 -2.513541 z m 6.879166,0 v -1.71979 h 2.513542 2.513541 v 1.71979 1.71979 h -2.513541 -2.513542 z m 7.408333,0 v -1.71979 h 2.38125 2.38125 v 1.71979 1.71979 h -2.38125 -2.38125 z m 7.14375,0 v -1.71979 h 2.513541 2.513542 v 1.71979 1.71979 h -2.513542 -2.513541 z m 7.143749,0 v -1.71979 h 2.513545 2.51354 v 1.71979 1.71979 h -2.51354 -2.513545 z m 7.143755,0 v -1.71979 h 2.51354 2.51354 v 1.71979 1.71979 h -2.51354 -2.51354 z M 54.617561,167.46235 v -2.51355 h 1.5875 1.5875 v 2.51355 2.51354 h -1.5875 -1.5875 z m 62.970829,0 v -2.51355 h 1.5875 1.5875 v 2.51355 2.51354 h -1.5875 -1.5875 z m -62.970829,-7.40834 v -2.51354 h 1.5875 1.5875 v 2.51354 2.51354 h -1.5875 -1.5875 z m 62.970829,0 v -2.51354 h 1.5875 1.5875 v 2.51354 2.51354 h -1.5875 -1.5875 z m -62.970829,-6.87916 v -2.51355 h 1.5875 1.5875 v 2.51355 2.51354 h -1.5875 -1.5875 z m 62.970829,0 v -2.51355 h 1.5875 1.5875 v 2.51355 2.51354 h -1.5875 -1.5875 z M 54.617561,146.0311 v -2.51354 h 1.5875 1.5875 v 2.51354 2.51354 h -1.5875 -1.5875 z m 62.970829,0 v -2.51354 h 1.5875 1.5875 v 2.51354 2.51354 h -1.5875 -1.5875 z m -62.970829,-7.14375 v -2.51354 h 1.5875 1.5875 v 2.51354 2.51354 h -1.5875 -1.5875 z m 62.970829,0 v -2.51354 h 1.5875 1.5875 v 2.51354 2.51354 h -1.5875 -1.5875 z M 54.617561,131.7436 v -2.51354 h 1.5875 1.5875 v 2.51354 2.51354 h -1.5875 -1.5875 z m 62.970829,0 v -2.51354 h 1.5875 1.5875 v 2.51354 2.51354 h -1.5875 -1.5875 z m -62.970829,-7.14375 v -2.51354 h 1.5875 1.5875 v 2.51354 2.51354 h -1.5875 -1.5875 z m 62.970829,0 v -2.51354 h 1.5875 1.5875 v 2.51354 2.51354 h -1.5875 -1.5875 z M 63.613394,114.2811 v -1.71979 h 2.513541 2.513542 v 1.71979 1.71979 h -2.513542 -2.513541 z m 7.408333,0 v -1.71979 h 2.513541 2.513542 v 1.71979 1.71979 h -2.513542 -2.513541 z m 6.879166,0 v -1.71979 h 2.513542 2.513541 v 1.71979 1.71979 h -2.513541 -2.513542 z m 7.408333,0 v -1.71979 h 2.38125 2.38125 v 1.71979 1.71979 h -2.38125 -2.38125 z m 7.14375,0 v -1.71979 h 2.513541 2.513542 v 1.71979 1.71979 h -2.513542 -2.513541 z m 7.143749,0 v -1.71979 h 2.513545 2.51354 v 1.71979 1.71979 h -2.51354 -2.513545 z m 7.143755,0 v -1.71979 h 2.51354 2.51354 v 1.71979 1.71979 h -2.51354 -2.51354 z"
            id="path859" />
      </g>
   </g>
</svg>